<?xml version="1.0" standalone="no"?><!DOCTYPE svg PUBLIC "-//W3C//DTD SVG 1.1//EN" "http://www.w3.org/Graphics/SVG/1.1/DTD/svg11.dtd">
<svg x="0.0000mm" y="0.0000mm" width="82.5500mm" height="26.4580mm" viewBox="0.0000 0.0000 82.5500 26.4580" version="1.1" xmlns="http://www.w3.org/2000/svg" shape-rendering="crispEdges">
<title>TBarCode - 11.11.0.16177</title>
<desc>BarCode licensed to MEM:TEC-IT Datenverarbeitung GmbH Internal License</desc>
<g fill="rgba(100%,100%,100%,0%)">
</g>
<g fill="rgba(100%,100%,100%,0%)">
<rect x="0.0000" y="0.0000" width="82.5500" height="26.4580" />
</g>
<g fill="rgb(100%,100%,100%,0%)">
</g>
<g fill="rgba(0%,0%,0%)">
<rect x="0.0000" y="0.0000" width="1.0583" height="20.1864" />
<rect x="1.5875" y="0.0000" width="0.5292" height="20.1864" />
<rect x="3.1750" y="0.0000" width="0.5292" height="20.1864" />
<rect x="5.8208" y="0.0000" width="0.5292" height="20.1864" />
<rect x="6.8792" y="0.0000" width="0.5292" height="20.1864" />
<rect x="8.9958" y="0.0000" width="1.0583" height="20.1864" />
<rect x="11.6417" y="0.0000" width="0.5292" height="20.1864" />
<rect x="13.7583" y="0.0000" width="0.5292" height="20.1864" />
<rect x="14.8167" y="0.0000" width="1.0583" height="20.1864" />
<rect x="17.4625" y="0.0000" width="0.5292" height="20.1864" />
<rect x="19.5792" y="0.0000" width="0.5292" height="20.1864" />
<rect x="21.6958" y="0.0000" width="1.0583" height="20.1864" />
<rect x="23.2833" y="0.0000" width="0.5292" height="20.1864" />
<rect x="24.8708" y="0.0000" width="1.0583" height="20.1864" />
<rect x="26.4583" y="0.0000" width="1.5875" height="20.1864" />
<rect x="29.1042" y="0.0000" width="0.5292" height="20.1864" />
<rect x="30.6917" y="0.0000" width="0.5292" height="20.1864" />
<rect x="31.7500" y="0.0000" width="1.0583" height="20.1864" />
<rect x="34.9250" y="0.0000" width="0.5292" height="20.1864" />
<rect x="36.5125" y="0.0000" width="0.5292" height="20.1864" />
<rect x="39.1583" y="0.0000" width="1.0583" height="20.1864" />
<rect x="40.7458" y="0.0000" width="0.5292" height="20.1864" />
<rect x="43.3917" y="0.0000" width="0.5292" height="20.1864" />
<rect x="44.4500" y="0.0000" width="1.0583" height="20.1864" />
<rect x="46.5667" y="0.0000" width="0.5292" height="20.1864" />
<rect x="48.1542" y="0.0000" width="1.0583" height="20.1864" />
<rect x="49.7417" y="0.0000" width="1.5875" height="20.1864" />
<rect x="52.3875" y="0.0000" width="0.5292" height="20.1864" />
<rect x="53.4458" y="0.0000" width="1.5875" height="20.1864" />
<rect x="55.5625" y="0.0000" width="2.1167" height="20.1864" />
<rect x="58.2083" y="0.0000" width="0.5292" height="20.1864" />
<rect x="59.2667" y="0.0000" width="1.0583" height="20.1864" />
<rect x="61.3833" y="0.0000" width="1.5875" height="20.1864" />
<rect x="64.0292" y="0.0000" width="0.5292" height="20.1864" />
<rect x="66.1458" y="0.0000" width="0.5292" height="20.1864" />
<rect x="67.2042" y="0.0000" width="1.0583" height="20.1864" />
<rect x="69.8500" y="0.0000" width="1.5875" height="20.1864" />
<rect x="71.9667" y="0.0000" width="0.5292" height="20.1864" />
<rect x="73.0250" y="0.0000" width="1.0583" height="20.1864" />
<rect x="75.6708" y="0.0000" width="1.0583" height="20.1864" />
<rect x="78.3167" y="0.0000" width="1.5875" height="20.1864" />
<rect x="80.4333" y="0.0000" width="0.5292" height="20.1864" />
<rect x="81.4917" y="0.0000" width="1.0583" height="20.1864" />
</g>
<g fill="rgb(0%,0%,0%,0%)">
<text x="41.2750" y="25.2821" transform="rotate(360 41.2750,25.2821)" text-anchor="middle" font-family="Arial" font-size="5.6444" >ABC-abc-1234</text>
</g>
</svg>
